<svg id="Layer_1" enable-background="new 0 0 512 512" height="512" viewBox="0 0 512 512" width="512" xmlns="http://www.w3.org/2000/svg"><g id="XMLID_24_"><g id="XMLID_37_"><path id="XMLID_50_" d="m75.916 75.916h360.169v360.169h-360.169z" fill="#e2e9ee" transform="matrix(.866 .5 -.5 .866 162.298 -93.703)"/></g><g id="XMLID_26_"><g id="XMLID_1246_"><path d="m76 76h360v360h-360z" fill="#fff"/></g><g id="XMLID_1277_"><path id="XMLID_38_" d="m124 124h264v264h-264z" fill="#66e0f7"/></g><g id="XMLID_33_"><path d="m182.942 227.886-58.942 102.09v58.024h198.445l-92.442-160.114c-10.458-18.114-36.603-18.114-47.061 0z" fill="#cbe558"/></g><g id="XMLID_32_"><path d="m354.091 261.329c-8.274-14.33-28.958-14.33-37.232 0l-33.252 57.594 39.882 69.077h64.511v-67.938z" fill="#cbe558"/></g><g id="XMLID_1325_"><path d="m199.505 309.445c4.4-7.758 15.341-8.389 20.604-1.188 7.275 9.955 22.61 8.245 27.514-3.067l11.584-26.722-29.204-50.582c-10.458-18.114-36.603-18.114-47.061 0l-29.204 50.582 25.405 32.484c5.388 6.89 16.047 6.101 20.362-1.507z" fill="#fff"/></g></g><g id="XMLID_72_"><path id="XMLID_75_" d="m511.659 187.496c-.687-2.562-2.362-4.746-4.659-6.072l-61-35.218v-70.206c0-5.523-4.478-10-10-10h-128.92l-111.996-64.66c-2.297-1.327-5.029-1.686-7.588-.999-2.563.687-4.746 2.362-6.072 4.659l-35.218 61h-70.206c-5.522 0-10 4.477-10 10v128.921l-64.66 111.995c-1.326 2.297-1.686 5.026-.999 7.588s2.362 4.746 4.659 6.072l61 35.218v70.206c0 5.523 4.478 10 10 10h128.92l111.996 64.66c1.533.886 3.26 1.34 5 1.34.866 0 1.737-.113 2.588-.341 2.563-.687 4.746-2.362 6.072-4.659l35.218-61h70.206c5.522 0 10-4.477 10-10v-128.921l64.66-111.995c1.326-2.296 1.686-5.026.999-7.588zm-317.915-163.836 73.335 42.34h-97.779zm-170.084 294.595 42.34-73.334v97.779zm294.596 170.085-73.335-42.34h97.779zm107.744-62.34h-340v-340h340zm20-158.921v-97.779l42.34 24.445z"/><path id="XMLID_97_" d="m388 114h-83.793c-5.522 0-10 4.477-10 10s4.478 10 10 10h73.793v148.741l-15.249-26.413c-5.693-9.86-15.891-15.748-27.276-15.748s-21.583 5.887-27.276 15.748l-25.114 43.498-44.422-76.941c-6.719-11.638-18.753-18.585-32.191-18.585s-25.472 6.948-32.19 18.585l-29.27 50.698c-.007.012-.014.024-.021.037l-10.991 19.036v-158.656h80.207c5.522 0 10-4.477 10-10s-4.478-10-10-10h-90.207c-5.522 0-10 4.477-10 10v264c0 5.523 4.478 10 10 10h264c5.522 0 10-4.477 10-10v-264c0-5.523-4.477-10-10-10zm-196.398 118.886c3.104-5.376 8.663-8.585 14.87-8.585 6.208 0 11.768 3.209 14.871 8.585l26.687 46.223-9.582 22.104c-1.238 2.856-3.77 3.432-4.801 3.547-1.027.114-3.625.113-5.464-2.403-4.483-6.134-11.676-9.535-19.275-9.099-7.585.438-14.352 4.644-18.101 11.253-.498.877-1.264 1.11-1.818 1.151-.561.036-1.347-.076-1.969-.871l-21.247-27.168zm-57.602 99.77 20.99-36.355 16.276 20.812c4.248 5.432 11.54 8.526 18.37 8.526.551 0-.554.042 0 0 7.432-.55 14.891-4.779 18.568-11.26.507-.895 1.289-1.121 1.855-1.154.566-.032 1.369.103 1.976.933 5.559 7.606 14.479 11.522 23.828 10.48 9.362-1.044 17.188-6.827 20.935-15.469l3.683-8.495 44.643 77.326h-171.124zm194.218 45.344-33.586-58.173 30.887-53.497c2.995-5.188 7.961-5.749 9.956-5.749s6.961.56 9.956 5.748l32.569 56.413v55.258z"/><path id="XMLID_166_" d="m259.21 134c2.63 0 5.21-1.07 7.07-2.93 1.859-1.86 2.93-4.44 2.93-7.07s-1.07-5.21-2.93-7.07-4.44-2.93-7.07-2.93c-2.641 0-5.22 1.07-7.07 2.93-1.87 1.86-2.93 4.44-2.93 7.07s1.06 5.21 2.93 7.07c1.85 1.86 4.429 2.93 7.07 2.93z"/></g></g></svg>